<svg xmlns="http://www.w3.org/2000/svg" width="400" height="400" fill="none" viewBox="0 0 400 400"><path fill="#f97316" d="M177.101 221.582a8.59 8.59 0 0 1 8.587-8.587h68.524q23.93 0 40.424-16.458 16.728-16.697 16.728-46.99 0-22.66-17.425-40.549-17.424-18.129-39.727-18.128H126.636c-8.836 0-16 7.163-16 16v244.766a8.364 8.364 0 1 1-16.727 0V89.696c0-8.837 7.164-16 16-16h144.303q29.272 0 51.576 23.137 22.303 23.136 22.303 52.714 0 36.495-21.606 58.678-21.606 21.944-52.273 21.944h-68.524a8.587 8.587 0 0 1-8.587-8.587m20 34.348a8.59 8.59 0 0 1 8.587-8.587h48.524q24.162 0 44.606-11.926 20.678-12.165 33.222-34.825 12.778-22.66 12.778-51.045 0-36.733-27.414-64.88-27.182-28.145-63.192-28.145H93.182c-8.837 0-16 7.163-16 16v299.114a8.364 8.364 0 1 1-16.727 0V55.348c0-8.837 7.163-16 16-16h177.757q28.111 0 52.97 15.266t39.495 40.788q14.868 25.522 14.868 54.145 0 32.44-14.868 59.155-14.87 26.477-39.495 41.265-24.394 14.55-52.97 14.55h-48.524a8.59 8.59 0 0 1-8.587-8.587m20 34.348a8.587 8.587 0 0 1 8.587-8.587h28.524q24.86 0 47.626-10.018 22.768-10.257 39.495-27.431 16.96-17.412 26.95-41.981 9.99-24.806 9.99-52.714 0-33.393-16.96-62.732-16.959-29.578-45.768-46.99-28.575-17.65-61.333-17.651H59.727c-8.836 0-16 7.163-16 16v353.462a8.364 8.364 0 0 1-16.727 0V21c0-8.837 7.163-16 16-16h211.212q37.172 0 69.697 20.036 32.526 19.799 51.808 53.192Q395 111.62 395 149.547q0 33.871-11.384 62.494-11.383 28.385-30.667 47.228-19.283 18.844-44.838 29.339-25.555 10.257-53.899 10.257h-28.524a8.59 8.59 0 0 1-8.587-8.587m-73.01 41.358a8.364 8.364 0 0 1-16.727 0V124.043c0-8.836 7.163-16 16-16h110.848q16.495 0 28.344 12.404 12.08 12.404 12.08 29.1 0 46.274-40.424 46.274h-88.524a8.587 8.587 0 1 1 0-17.174h88.524q11.152 0 17.424-6.44t6.273-22.66q0-10.495-6.97-17.412-6.737-6.918-16.727-6.918h-94.121c-8.837 0-16 7.164-16 16z" style="mix-blend-mode:multiply"/></svg>